<svg viewBox="0 0 278 48" class="img-responsive" xmlns="http://www.w3.org/2000/svg">
	<path class="letter" fill="#fff" d="M25.4,16.6c0,2.1-0.3,4-1,5.5s-1.6,2.9-2.8,4c-1.2,1.2-2.8,2.1-4.7,2.6
		  c-1.7,0.5-3.8,0.9-6.2,0.9H7.6v11.7c0,0.2-0.2,0.3-0.2,0.5c-0.2,0.2-0.3,0.3-0.7,0.3c-0.3,0.2-0.7,0.2-1.2,0.3H3.8H1.9
		  c-0.5-0.2-0.9-0.2-1-0.3c-0.3,0-0.5-0.2-0.7-0.3C0,41.6,0,41.4,0,41.2V8.1C0,7.2,0.2,6.6,0.7,6c0.5-0.5,1-0.7,1.9-0.7h8.6
		  c0.9,0,1.7,0,2.6,0.2c0.7,0,1.7,0.2,2.8,0.3C17.8,6,18.8,6.6,20,7.1c1,0.7,2.1,1.4,2.9,2.2c0.7,0.9,1.4,2.1,1.7,3.3
		  C25,13.8,25.4,15,25.4,16.6 M17.4,17.1c0-1.2-0.2-2.2-0.7-3.1c-0.3-0.9-1-1.6-1.7-1.9c-0.5-0.3-1.2-0.7-2.1-0.7
		  c-0.7-0.2-1.4-0.2-2.2-0.2H7.6v12.4h3.3c1.2,0,2.2-0.2,3.1-0.3c0.7-0.3,1.4-0.9,1.9-1.4c0.5-0.7,0.9-1.4,1.2-2.1
		  C17.2,19,17.4,18.1,17.4,17.1"></path>
	<path class="letter" fill="#fff" d="M50.9,39.2c0,0.5,0,1-0.2,1.4c0,0.5,0,0.9-0.2,1c-0.2,0.3-0.2,0.5-0.3,0.5
		  c-0.2,0.2-0.3,0.2-0.5,0.2H32.8c-0.7,0-1.2-0.2-1.6-0.5c-0.5-0.3-0.7-1-0.7-1.7V6.4c0-0.2,0-0.3,0.2-0.5c0.2-0.2,0.3-0.3,0.7-0.3
		  c0.2-0.2,0.7-0.2,1-0.2c0.5-0.2,1.2-0.2,1.9-0.2c0.7,0,1.4,0,1.7,0.2c0.5,0,0.9,0,1.2,0.2c0.3,0,0.5,0.2,0.7,0.3
		  c0,0.2,0.2,0.3,0.2,0.5v29.7h11.6c0.2,0,0.3,0.2,0.5,0.2c0.2,0.2,0.2,0.3,0.3,0.5c0.2,0.3,0.2,0.5,0.2,1
		  C50.9,38.1,50.9,38.6,50.9,39.2"></path>
	<path class="letter" fill="#fff" d="M87.8,39.5c0.3,0.7,0.3,1.2,0.5,1.6c0,0.5,0,0.9-0.3,1c-0.2,0.2-0.5,0.3-1,0.3
		  h-2.2h-2.2c-0.5,0-1-0.2-1.2-0.2c-0.3,0-0.5-0.2-0.7-0.3c0-0.2-0.2-0.3-0.2-0.7l-2.6-7.4H64l-2.4,7.2c0,0.3-0.2,0.5-0.2,0.7
		  c-0.2,0.2-0.3,0.3-0.7,0.5c-0.2,0-0.7,0.2-1.2,0.2h-1.9h-2.1c-0.5-0.2-0.9-0.2-1-0.5c-0.2-0.2-0.3-0.5-0.2-0.9
		  c0-0.3,0.2-0.9,0.3-1.6L66.1,6.7c0.2-0.3,0.3-0.7,0.5-0.9c0.2-0.2,0.3-0.3,0.7-0.3c0.3-0.2,0.7-0.2,1.4-0.3h2.2h2.8
		  c0.7,0.2,1.2,0.2,1.6,0.3c0.3,0,0.7,0.2,0.9,0.3c0.2,0.2,0.2,0.5,0.3,0.9L87.8,39.5z M70.9,12.4L70.9,12.4l-5.3,15.7h10.5
		  L70.9,12.4z"></path>
	<path class="letter" fill="#fff" d="M122.8,41.4c0,0.2-0.2,0.3-0.2,0.5c-0.2,0-0.3,0.2-0.5,0.3
		  c-0.3,0-0.7,0.2-1.4,0.2h-2.2h-1.9c-0.3,0-0.9-0.2-1-0.2c-0.3-0.2-0.5-0.3-0.7-0.5c0-0.2-0.2-0.3-0.2-0.5l-3.3-8.3
		  c-0.5-0.9-0.9-1.7-1.2-2.4c-0.3-0.7-0.9-1.4-1.4-1.9c-0.3-0.5-0.9-0.9-1.6-1c-0.5-0.3-1.4-0.3-2.1-0.3h-2.4v14c0,0.2,0,0.3-0.2,0.5
		  c-0.2,0.2-0.3,0.3-0.5,0.3c-0.3,0.2-0.7,0.2-1.2,0.3H99h-1.7c-0.5-0.2-0.9-0.2-1.2-0.3c-0.2,0-0.5-0.2-0.5-0.3
		  c-0.2-0.2-0.2-0.3-0.2-0.5V7.8c0-0.9,0.2-1.6,0.5-1.9c0.5-0.3,1-0.5,1.7-0.5h9.5h2.4c0.7,0.2,1.2,0.2,1.7,0.2
		  c1.4,0.2,2.8,0.7,4,1.2c1.2,0.5,2.2,1,3.1,1.9c0.7,0.9,1.4,1.9,1.9,2.9c0.3,1.2,0.5,2.4,0.5,4c0,1.2,0,2.4-0.3,3.3
		  c-0.3,1-0.9,2.1-1.4,2.8c-0.7,0.9-1.4,1.6-2.2,2.1c-1,0.7-1.9,1.2-3.1,1.6c0.5,0.2,1,0.5,1.6,0.9s0.9,0.9,1.4,1.4
		  c0.3,0.5,0.9,1.2,1.2,1.9c0.3,0.7,0.7,1.6,1,2.4L122,39c0.3,0.7,0.5,1.2,0.7,1.6C122.6,40.9,122.8,41.2,122.8,41.4 M113,16.2
		  c0-1.2-0.2-2.2-0.7-3.1c-0.7-0.7-1.6-1.4-2.8-1.7c-0.3,0-0.9-0.2-1.4-0.2c-0.3,0-1-0.2-1.9-0.2h-3.4v10.5h3.8
		  c1.2,0,2.1-0.2,2.9-0.3c0.7-0.3,1.4-0.7,1.9-1c0.5-0.5,1-1,1.2-1.7C113,17.8,113,17.1,113,16.2"></path>
	<path class="letter" fill="#fff" d="M152,31.2c0,1.9-0.5,3.6-1.2,5.2c-0.7,1.4-1.7,2.6-2.9,3.6
		  c-1.2,1-2.6,1.7-4.3,2.2c-1.6,0.5-3.4,0.7-5.3,0.7c-1.2,0-2.4-0.2-3.4-0.3c-1.2-0.2-2.1-0.3-2.9-0.7c-0.9-0.3-1.6-0.7-2.1-1
		  c-0.5-0.2-1-0.5-1.2-0.9c-0.3-0.2-0.5-0.5-0.5-1c-0.2-0.3-0.2-1-0.2-1.9v-1.6c0-0.3,0.2-0.7,0.2-1c0.2-0.2,0.2-0.3,0.3-0.5
		  c0.2,0,0.3-0.2,0.5-0.2c0.3,0,0.7,0.2,1.2,0.5c0.3,0.3,1,0.7,1.7,1c0.9,0.3,1.7,0.7,2.8,1c1,0.3,2.2,0.5,3.8,0.5
		  c0.9,0,1.7-0.2,2.4-0.3c0.7-0.2,1.2-0.5,1.7-0.9c0.5-0.5,1-0.9,1.2-1.6c0.3-0.5,0.3-1.2,0.3-1.9c0-0.9-0.2-1.6-0.7-2.2
		  c-0.3-0.5-1-1-1.7-1.6c-0.7-0.5-1.6-0.9-2.4-1.4c-1-0.3-1.9-0.9-2.9-1.2c-1-0.5-1.9-1-2.9-1.6c-0.9-0.7-1.7-1.4-2.4-2.1
		  c-0.9-0.9-1.4-1.9-1.9-2.9c-0.3-1-0.7-2.4-0.7-4c0-1.7,0.3-3.3,1-4.7c0.7-1.4,1.6-2.4,2.8-3.3c1-0.9,2.4-1.6,3.8-2.1
		  c1.6-0.3,3.1-0.7,4.8-0.7c0.9,0,1.7,0.2,2.6,0.2c1,0.2,1.7,0.3,2.6,0.7c0.7,0.2,1.4,0.3,1.9,0.7c0.7,0.3,1,0.5,1.2,0.7
		  c0.2,0.2,0.3,0.3,0.3,0.5c0.2,0.2,0.2,0.3,0.2,0.5c0.2,0.2,0.2,0.5,0.2,0.9V10v1.4c0,0.3-0.2,0.7-0.2,1c0,0.2-0.2,0.3-0.3,0.5
		  c0,0-0.2,0.2-0.3,0.2c-0.3,0-0.7-0.2-1-0.5c-0.5-0.2-1-0.5-1.7-0.9c-0.7-0.2-1.4-0.5-2.2-0.9c-0.9-0.2-1.9-0.3-2.9-0.3
		  c-0.9,0-1.6,0.2-2.1,0.3c-0.7,0.2-1.2,0.5-1.6,0.9c-0.5,0.3-0.7,0.7-1,1.2c-0.2,0.5-0.2,1-0.2,1.6c0,0.9,0.2,1.6,0.5,2.2
		  c0.5,0.5,1.2,1,1.9,1.6c0.7,0.5,1.6,0.9,2.6,1.2c0.9,0.5,1.9,0.9,2.9,1.4c0.9,0.5,1.9,1,2.9,1.6c0.9,0.5,1.7,1.2,2.4,2.1
		  c0.7,0.9,1.4,1.7,1.9,2.9C151.6,28.5,152,29.7,152,31.2"></path>
	<path class="bracket" fill="#FF6600" d="M171.8,5.3c0-1.2,1.4-1.9,2.8-1.9V0c-3.3,0-10.7,0.5-10.7,5.3V43
		  c0,4.8,7.4,5.3,10.7,5.3v-3.5c-1.4,0-2.8-0.7-2.8-1.9V5.3z"></path>
	<path class="bracket" fill="#FF6600" d="M270.1,5.3c0-1.2-1.2-1.9-2.8-1.9V0c3.3,0,10.7,0.5,10.7,5.3V43
		  c0,4.8-7.4,5.3-10.7,5.3v-3.5c1.6,0,2.8-0.7,2.8-1.9V5.3z"></path>
	<path class="letter" fill="#fff" d="M218.6,23.5c0,2.9-0.3,5.7-1.2,8.1c-0.7,2.4-1.9,4.5-3.3,6.2
		  c-1.6,1.7-3.4,2.9-5.7,3.8c-2.2,0.9-4.7,1.4-7.6,1.4c-2.9,0-5.5-0.3-7.6-1c-2.1-0.9-4-1.9-5.3-3.5c-1.4-1.6-2.4-3.6-3.3-6
		  c-0.7-2.2-1-5.2-1-8.3s0.3-5.7,1.2-8.1c0.7-2.4,1.9-4.5,3.4-6.2c1.4-1.6,3.3-2.9,5.5-3.8c2.2-0.9,4.8-1.4,7.8-1.4
		  c2.8,0,5.2,0.3,7.4,1.2c2.1,0.7,3.8,1.9,5.3,3.4c1.4,1.6,2.4,3.5,3.3,5.7C218.2,17.4,218.6,20.2,218.6,23.5 M210.6,23.8
		  c0-1.9-0.2-3.6-0.3-5.3c-0.3-1.6-0.9-2.9-1.6-4c-0.9-1.2-1.7-2.1-2.9-2.8c-1.2-0.5-2.8-0.9-4.7-0.9c-1.9,0-3.4,0.3-4.7,1
		  c-1.2,0.7-2.2,1.7-2.9,2.8c-0.7,1.2-1.4,2.6-1.6,4.1c-0.3,1.6-0.5,3.1-0.5,4.8c0,2.1,0.2,4,0.5,5.5c0.2,1.6,0.7,2.9,1.4,4.1
		  c0.9,1,1.7,1.9,2.9,2.6c1.2,0.5,2.8,0.9,4.7,0.9c1.9,0,3.4-0.3,4.7-1c1.2-0.7,2.2-1.6,2.9-2.8c0.9-1.2,1.4-2.6,1.7-4.1
		  C210.4,27.3,210.6,25.5,210.6,23.8"></path>
	<path class="letter" fill="#fff" d="M255.3,39.7c0,0.5,0,0.9-0.2,1.2c-0.2,0.3-0.3,0.5-0.7,0.9
		  c-0.2,0.2-0.5,0.3-0.9,0.5c-0.3,0-0.7,0.2-1,0.2h-3.3c-0.7,0-1.2-0.2-1.7-0.3c-0.5,0-0.9-0.3-1.4-0.7c-0.3-0.3-0.7-0.9-1.2-1.4
		  c-0.3-0.7-0.7-1.4-1.2-2.4l-9.1-17.2c-0.5-1-1-2.1-1.7-3.3c-0.5-1.2-1-2.4-1.4-3.5h-0.2c0.2,1.4,0.2,2.8,0.2,4.1
		  c0.2,1.4,0.2,2.8,0.2,4.1v19.3c0,0.2-0.2,0.3-0.2,0.5c-0.2,0.2-0.3,0.3-0.5,0.3c-0.3,0.2-0.7,0.2-1,0.3h-1.7h-1.7
		  c-0.3-0.2-0.7-0.2-1-0.3c-0.2,0-0.3-0.2-0.5-0.3v-0.5V8.1c0-0.9,0.2-1.6,0.7-2.1c0.5-0.5,1.2-0.7,1.9-0.7h4.1c0.7,0,1.2,0,1.7,0.2
		  c0.5,0.2,1,0.3,1.4,0.7c0.3,0.2,0.7,0.7,1,1.2c0.3,0.5,0.7,1,1,1.7l7.2,13.6c0.5,0.7,0.9,1.6,1.2,2.4c0.5,0.7,0.9,1.6,1.2,2.2
		  c0.3,0.9,0.7,1.7,1.2,2.4c0.3,0.7,0.7,1.6,1,2.2c0-1.4-0.2-2.8-0.2-4.1v-4.1V6.6c0-0.3,0-0.5,0.2-0.5c0.2-0.2,0.3-0.3,0.5-0.5
		  c0.3,0,0.7-0.2,1-0.2c0.5,0,1-0.2,1.7-0.2c0.7,0,1.2,0.2,1.6,0.2c0.5,0,0.9,0.2,1,0.2c0.3,0.2,0.5,0.3,0.5,0.5
		  c0.2,0,0.2,0.2,0.2,0.5V39.7z"></path>
</svg>